<?xml version="1.0" encoding="utf-8"?>
<!-- Generator: Adobe Illustrator 21.0.2, SVG Export Plug-In . SVG Version: 6.00 Build 0)  -->
<svg version="1.1" id="Layer_1" xmlns="http://www.w3.org/2000/svg" xmlns:xlink="http://www.w3.org/1999/xlink" x="0px" y="0px"
	 viewBox="0 0 376.3 608.2" style="enable-background:new 0 0 376.3 608.2;" xml:space="preserve">
<style type="text/css">
	.st0{fill:#444444;}
	.st1{fill:none;stroke:#33FB01;}
	.st2{fill:none;stroke:#0FFE00;}
	.st3{fill:none;stroke:#29FC01;}
	.st4{fill:none;stroke:#52F901;}
</style>
<rect y="0" class="st0" width="376.3" height="608.2"/>
<polyline id="R001-U001-GS1-RND1" class="st1" points="40.4,434.2 40.4,434.2 40.4,434.2 35.9,434.2 35.9,434.2 35.9,434.2 
	35.9,434.2 35.9,434.2 35.9,434.2 43.5,434.2 52.2,434.2 60.6,434.2 64.1,434.2 67.5,434.2 71.9,434.2 75.3,434.2 76.8,434.2 
	76.9,434.2 83.3,434.2 85.8,434.2 87.6,434.2 95.8,434.2 96.2,434.2 96.2,434.2 96.3,434.1 97.2,432.5 97.8,431.3 97.8,431.3 
	97.8,431.3 96.1,434.4 96.1,434.4 97.1,432.7 98.8,429.6 98.9,429.4 98.9,429.4 99.1,429.1 103.1,421.9 102.7,423.7 102.7,424.2 
	102.7,424.2 102.7,424.2 102.7,424.2 102.7,424.2 102.7,424.2 102.7,424.2 102.7,424.2 102.7,424.2 102.7,422.7 103.5,415.7 
	103.2,416.9 103.1,417.6 103.1,417.6 103.1,417.6 103.1,417.6 103.1,417.6 103.1,417.6 103.1,417.6 103.1,417.6 103.1,417.6 
	103.1,417.6 103.1,417.6 103.1,417.6 103.1,417.6 103.1,417.6 103.1,417.6 103.1,417.6 103.1,417.6 103.1,417.6 103.1,417.6 
	103.1,417.6 103.1,417.6 103.1,417.6 103.1,417.6 103.1,417.6 103.1,417.6 103.1,417.6 103.1,417.6 103.1,417.6 103.1,417.6 
	103.1,417.6 103.1,417.6 103.1,417.6 103.1,417.6 103.1,417.6 103.1,417.6 102.9,415.1 102.3,407.2 102.3,404.7 101.9,405.2 
	101.9,405.2 102.1,405 102.1,405 102.1,405 102.1,405 102.1,405 102.1,405 104.7,402.2 110.4,396.1 114.7,391.7 115,391.5 
	115,391.5 115,391.5 115,391.5 115,391.5 113.2,392.5 110.7,393.9 110.7,393.9 110.7,393.9 110.7,393.9 110.6,393.9 110.3,394.1 
	110.4,394 111.8,393.2 112.6,392.8 111.9,393.2 107.9,395.4 105.3,396.8 103.4,397.7 103.1,397.9 103.1,397.9 106.4,396.2 
	112.2,393.2 117.6,390.5 122.3,388.2 122.5,388.1 122.7,388 130.3,384.3 136.2,381.2 139.4,377.8 138,382.4 137.8,383.5 
	138.1,382.2 138.3,381 137.5,384.8 137.5,384.8 137.5,384.8 137.5,384.8 137.5,384.8 136.2,379.7 134.4,372.1 133,365.8 133,365.8 
	133,365.8 133,365.8 133,365.8 133.1,365.7 136.3,361.7 137.3,360.8 137.4,360.7 137.6,360.7 139.9,359.8 144.4,358.1 149.2,357.9 
	154.2,356.9 160.4,354.6 162,353.9 162,353.9 162,353.9 162,353.9 162,353.9 162,353.9 162,353.9 162,353.9 162,353.9 161.2,352.7 
	157.6,349.4 154.3,349.4 153.8,349.4 153.9,349.4 156.3,349.4 158.7,349.4 158.7,349.4 158.7,349.4 158.7,349.4 158.7,349.4 
	158.7,349.4 158.7,349.4 158.7,349.4 158.7,349.4 158.7,349.4 158.7,349.4 158.7,349.4 158.1,349.4 153.2,349.4 152.1,349.4 
	152.1,349.4 152.1,349.4 152.2,349.8 152.2,349.8 152.2,349.8 152.2,349.8 152.2,349.8 152.2,349.8 152.2,349.8 156.4,350 
	156.4,350 156.4,350 156.4,350 156.4,350 156.4,350 156.4,350 153.8,349.4 152.1,349.4 152.1,349.4 152.1,349.4 152.1,349.4 
	152.1,349.4 152.1,349.4 152.1,349.4 152.1,349.4 152.2,349.5 152.4,349.8 152.4,349.9 154.5,353.5 156.7,357.1 156.7,357.1 
	156.7,357.1 156.7,357.1 156.7,357.1 156.7,357.1 156.7,357.1 156.7,357.1 156.7,357.1 156.7,357.1 156.7,357.1 156.7,357.1 
	156.7,357.1 156.7,357.1 156.7,357.1 156.7,357.1 156.7,357.1 156.7,357.1 156.7,357.1 156.4,353.4 155.9,349.4 155.4,349.4 
	154.9,349.4 154.9,349.5 154.9,349.9 155,350.4 155,350.6 155.1,352.1 155.2,354.6 155.4,357.5 155.6,360.9 155.5,359.2 
	155.5,359.2 155.8,360 156.4,360.3 156.7,360.4 156.7,360.4 156.7,360.4 156.7,360.4 154,359.8 145.6,357.9 137.6,356.4 
	134.3,355.5 134.2,355.4 134.1,355.2 134,355.1 133.9,354.9 131.9,349.9 130.6,345.5 129.8,340.2 129.1,336.1 128.7,331.3 
	128.9,326.7 129.2,321.6 129.7,315.5 130.6,309.5 131,306.6 131,306.6 131,306.6 131,306.6 131,306.6 131,306.6 131,306.6 
	131,306.6 131,306.6 131,306.6 131,306.6 131,306.6 131,306.6 131,306.6 131,306.6 131,306.6 131,306.6 131,306.6 131,306.6 
	131,306.6 130.9,305.1 130.4,297 130,291 130,291 130,291 130,291 130.2,290.5 132.3,285.1 133.9,281.5 134.9,280.5 136.1,280.3 
	137.7,280.3 141.6,280.5 141.6,280.5 138.9,280.4 130.3,280.1 121.7,279.8 119.9,279.5 119.9,279.3 119.9,279.2 119.9,278.9 
	119.9,278.9 125,279.1 133.5,279.4 142.1,279.7 150.7,280 159.4,280.3 168,280.6 176.4,280.8 185,281.1 193.6,281.4 202.2,280.8 
	209,276.3 209.2,275.2 215.3,269.2 221.5,263.2 227.6,257.1 232.5,250.2 232.8,246.8 231,244.7 228.5,243.9 226,245 224.5,247.7 
	224.3,248.7 224.3,248.7 224.3,248.8 224.3,248.8 224.3,248.8 223.3,253.6 222.6,257.1 223.7,251.7 224.3,248.4 224.3,248.4 
	224.2,249.3 223.9,250.5 223.7,251.7 223.6,252.2 223.6,252.2 223.6,252.2 223.6,252.2 223.6,252.2 223.6,252.2 223.9,249.1 
	224,248.8 224,248.8 223.9,249.3 223.6,252.2 223.6,252.2 223.6,252.2 223.6,252.2 223.6,252.2 223.6,252.2 223.6,252.2 
	223.6,252.2 223.6,252.2 223.6,252.2 223.6,252.2 223.6,252.2 223.6,252.2 223.6,252.2 223.6,252.2 223.6,252.2 223.6,252.2 
	223.6,252.2 223.6,252.2 223.1,256.3 222.8,258.5 222.8,258.5 223,256.9 223,256.9 223,256.9 223,256.9 223,256.9 223,256.9 
	223,256.9 223,256.9 223,256.9 223,256.9 223,256.9 223,256.9 223,256.9 223,256.9 223,256.9 223,256.9 223,256.9 223,256.9 
	223,256.9 223,256.9 223,256.9 223,256.9 223,256.9 223,256.9 223,256.9 223,256.9 223,256.9 223,256.9 223,256.9 223,256.9 
	222.3,258.2 220.8,261.2 219.3,263.4 217.8,264.7 215.6,266.1 212.5,268.3 209.6,270.2 206.9,272 204.7,273.5 202.5,274.9 
	199.8,276.7 196.6,278.9 193.7,280.9 191.2,281.9 188.7,281.8 185.8,280.7 181.9,279.2 178.1,277.8 174.9,276.6 171.5,275.3 
	167.8,273.9 163.5,273.2 159.6,273.6 155.8,273.9 151.8,274.3 147.6,274.7 143.6,275.2 140,276.8 137.7,279.9 136.1,283.1 
	135,285.4 135,285.4 134.9,285.4 134.9,285.4 134.9,285.4 134.9,285.3 134.9,285.3 136.8,283.1 139,280.4 140.8,278.5 142.4,277.8 
	145.1,277.7 148.6,277.6 152.4,277.6 156.2,277.5 159.8,277.4 163.4,277.3 166.6,277.3 169.7,277.5 173,278.5 176.7,279.6 
	180.5,280.8 184.1,281.8 187.9,282.9 191.8,282.9 195,281.2 198,278.8 200.9,276.6 203.8,274.2 206.8,271.9 209.8,269.5 
	212.8,267.1 215.9,264.7 219,262.2 221.7,259.3 224.4,256.2 227.2,252.7 228.1,248.5 226.1,244.8 223.4,241.3 220.7,237.9 
	218.2,234.7 215.6,231.5 212.6,229 209.6,226.5 206.9,224.2 205.4,220.4 206.6,216 211.1,212.9 211.3,212.9 211.3,212.9 
	211.3,213.1 211.4,215.3 211.5,217.7 211.6,220.4 211.9,223.5 213.2,226.7 214.9,229.9 216.6,233 218.7,236.4 221.9,238.6 
	225.6,239.7 229.3,240.6 232.8,241.5 236.6,242 240.3,240.7 243.6,238.3 247.1,235.6 253.7,230.5 260,224.7 261.9,216.5 
	260.1,208.1 258.1,199.7 255.9,191.4 251,184.4 244,179.4 239.7,176.5 239.7,176.5 239.7,176.4 239.6,176.2 239.5,175.9 
	239.3,175.5 239,174.8 238.5,173.5 238.2,172.6 237.9,171.4 237.7,170.2 237.4,169 237.2,167.6 236.9,166.1 236.7,164.5 
	236.7,163.2 236.8,162 236.8,161.7 236.8,161.7 236.8,161.7 236.8,161.7 236.8,161.7 236.8,161.7 236.8,161.7 236.8,161.7 
	236.7,161.6 236.3,160.9 235.7,159.9 235.1,158.8 234.6,157.9 234.6,157.9 234.6,157.9 234.6,157.9 234.6,157.9 234.6,157.9 
	234.6,157.9 234.3,157.4 233.5,155.6 233.4,153.2 233.7,149 234,144.6 234.3,140.7 234.7,136.8 235,132.8 235.4,128.3 235.9,121.6 
	236.7,113.8 239.7,106.1 245.3,100.8 251.9,97.8 258.9,95 265.9,92.8 272.9,93 280.3,94.6 287.5,96.1 290.7,96.3 290.7,96.3 
	291.1,96.1 292.9,95.3 295,94.8 296.9,94.4 299.1,94 299.1,94 299.1,94 299.2,93.9 300,93.8 300.6,93.6 300.7,93.6 300.7,93.6 
	300.7,93.6 300.7,93.6 300.7,93.6 "/>
<polyline id="R002-U001-GS1-RND2" class="st2" points="40.4,434.2 40.4,434.2 40.4,434.2 40.4,434.2 38.7,434.2 35.9,434.2 
	42.2,434.2 50.8,434.2 59.4,434.3 68,435.2 76.5,436.2 85.1,437.2 93.6,437.1 100.1,431.7 101.5,424.7 101.5,424.7 101.4,422.9 
	101.1,418.2 101.1,418.2 101.1,418.2 101.1,418 100.7,410.2 100.8,403.4 103.8,397.6 109.2,394.5 116.1,392.5 124.4,390 
	131.4,385.4 134.1,377.3 135.4,368.8 136.9,360.7 141.1,355.6 142.2,355 142.2,355 143.6,358 145.9,361.6 150.9,361.6 156.9,362.3 
	163.2,363 168.9,363.1 172.8,360.1 172.9,354.9 169.8,350.4 164.4,349.5 159.6,352.5 155.7,357 152.7,360.2 148.3,361.2 144,359.9 
	139.5,356.7 135.6,352 133,346.2 132.1,340 131.6,333.9 131,327.9 130.4,321.7 129.8,315.3 129.6,312.8 129.6,312.8 129.6,312.6 
	129.6,312 129.7,311.5 129.7,310.8 129.7,310.1 129.7,309.3 129.8,309.1 129.8,309.1 129.8,309.1 129.8,309.1 129.8,309.1 
	129.8,309.1 129.8,309.1 129.8,309.1 129.8,309.1 129.8,309.1 129.8,309.1 129.8,309.1 129.8,309.1 129.8,309.1 129.8,309.1 
	129.8,309.1 129.8,309.1 129.8,309.1 129.8,309.1 129.8,309.1 129.8,309.1 129.8,309.1 129.8,309.1 129.8,309.1 129.8,309.1 
	129.8,309.1 129.8,309.1 129.8,309.1 131.1,302.8 132.5,295.8 133.6,290.3 134.2,287 135,285.1 136.8,283.3 139.8,280.4 144.8,277 
	149.9,276.5 156.3,277.2 163.1,278 170,278.8 176.9,279.6 183,280.7 190.4,282.4 198.1,283.6 204,280.1 209.2,273.6 214.3,266.6 
	218.7,260.6 218.7,260.6 218.8,260.5 219.4,259.9 219.9,259.3 220.5,258.8 221.1,258.1 221.2,258 221.2,258 221.2,258 221.2,258 
	221.2,258 221.2,258 221.2,258 221.2,258 221.2,258 221.2,258 221.2,258 221.2,258 221.2,258 221.2,258 221.2,258 221.2,258 
	221.2,258 221.2,258 221.2,258 221.2,258 221.2,258 221.2,258 221.2,258 221.2,258 224,254.4 227.3,250 228.1,246.1 225.9,241.4 
	222.7,236 218.4,230.6 214.1,224.7 209.7,218.5 209.6,218.4 209.6,218.4 209.6,218.4 209.6,218.4 209.6,218.4 209.6,218.5 
	210.2,220.3 211.8,225.6 214.1,231.7 218.8,236.3 224.1,239.3 229.4,242.3 235.9,243.4 241.6,240.3 246.2,236.6 250.5,232.9 
	254.8,228.5 258.4,223.6 261.8,218.3 263.3,211.8 261.4,205.7 258.6,200.4 256,195.4 253.3,190.4 250.5,185 247.5,179.5 
	244.7,174.1 241.8,168.6 238.9,163.3 238.9,163.2 238.9,163.2 238.7,162.8 238.5,162.4 238.3,162.1 238.3,162.1 238.3,162.2 
	238.7,162.8 240,165.3 240.7,166.7 241.3,167.7 242.5,169.9 246,176.6 250,184.2 253.5,190.8 255.6,194.6 254.3,192.2 250.2,184.6 
	246.2,177 242.6,170.1 239.9,164.9 238.4,160.4 238.4,160.4 238.4,160.4 238.4,160.4 238.4,160.4 238.4,160.4 238.4,160.4 
	238.4,160.4 238.4,160.4 238.4,160.4 238.4,160.4 238.4,160.4 236.2,157.6 235.3,154.3 235.7,150.1 236.3,143.8 237,135.6 
	237.8,127.6 238.6,119.5 239.3,111.6 240.2,104.9 243.4,99.1 249.2,95 256.4,94.4 264.5,95.5 272.9,96.7 281.4,97.1 290,96.1 
	297.2,94.5 297.2,94.5 299.7,93.9 301,93.6 301,93.6 "/>
<polyline id="R003-U001-GS2-RND1" class="st3" points="40.4,434.2 40.4,434.2 40.4,434.2 40.4,434.2 40.4,434.2 40.4,434.2 
	40.4,434.2 40.4,434.2 40.4,434.2 40.4,434.2 47.1,434.2 54.2,434.2 61.2,434.2 68.3,434.2 75.4,434.2 82.4,434.2 89.5,434.2 
	96.5,433.5 101.5,428.9 103.2,422 103.9,418.6 103.9,418.6 103.9,418.6 103.9,418.6 103.9,418.6 103.9,418.6 103.9,418.6 
	103.9,418.6 103.9,418.6 103.9,418.6 103.9,418.6 103.9,418.6 103.8,417.1 103.2,412.4 102.6,407.7 102.1,403.1 101.8,398.4 
	104.4,394.6 108.1,391.6 111.8,388.7 115.4,385.7 119.1,382.8 122.8,379.8 126.4,376.9 130.1,373.9 133.8,371 137.4,368 139.7,364 
	140.4,359.3 142.7,355.4 143.4,354.1 143.4,356.2 144.3,360.6 146,361.6 150,361.6 154.9,362.1 159.5,362.7 164.2,363.3 
	168.9,363.9 173,363.9 173,361 172.8,356.5 170,352.8 165.6,351.3 161.1,350 156.6,351.1 154.1,354.9 152.5,359.4 149,361.6 
	144.3,361.7 139.6,361.7 135.2,360.5 132.8,356.5 132.3,351.8 131.8,347.1 131.3,342.5 130.8,337.8 130.3,333.1 129.8,328.4 
	129.3,323.7 129.1,321 129.1,321 129.1,321 129.1,321 129.1,321 129.1,321 129.1,321 129.1,321 129.1,321 129.1,321 129.1,321 
	129.1,321 129.1,321.7 129.5,324.8 129.5,324.8 129.5,324.8 129.5,324.8 129.3,322.9 128.4,314.3 128,310.8 128,310.8 128,310.8 
	128,310.8 127.8,308.7 127.2,303.6 126.9,300.7 126.9,300.7 126.9,300.7 126.9,301.3 126.9,302.2 127,303.1 127,304 127,304.9 
	127,304.9 127,304.9 127,304.9 127,304.9 127,304.9 127,304.9 127,304.9 127,304.9 127,304.9 127,304.9 127,304.9 127,304.9 
	127,304.9 127,304.9 127,304.9 127,304.9 127,304.9 127,304.9 127,304.9 127,304.9 127,304.9 127,304.9 127,304.9 127,304.9 
	127,304.9 127.3,303.9 128.4,299.5 129.4,295.1 130.6,290.8 133.4,287.3 136.6,284.1 139.9,281 143.4,278.2 147.8,277.3 
	152.3,277.4 156.8,277.5 161.3,277.6 165.8,277.9 169.7,279.9 173.2,282.6 177.3,284.2 181.7,283.4 186.1,282.5 190.5,281.6 
	195,280.7 199.2,279.3 202.8,276.6 206.4,273.9 210,271.2 213.6,268.6 217.3,265.9 220.6,262.9 222.3,260.9 222.3,260.9 
	222.3,260.9 223.8,259.1 226,256.3 226,256.3 226,256.3 226,256.3 226,256.3 226,256.3 226,256.3 226,256.3 226,256.3 226,256.3 
	226,256.3 226,256.3 226,256.3 226,256.3 226,256.3 226,256.3 226,256.3 226,256.3 226,256.3 226,256.3 226,256.3 226,256.3 
	226,256.3 226,256.3 226,256.3 226,256.3 226,256.3 226,256.3 226,256.3 226,256.3 226,256.3 226,256.3 226,256.3 226,256.3 
	226,256.3 226,251.3 226.1,245.2 224.9,239.3 221.1,234.5 217.1,229.8 213.2,225.1 209.3,220.4 207.9,214.8 210.5,212.2 
	212.5,214.1 216.6,218.1 220.1,223.1 223.2,228.3 221.2,232.2 218,236.5 213,237 207,236.9 204,233.8 199.9,229.6 198.6,224.1 
	199.5,223.1 199.5,223.1 199.5,223.1 199.5,223.1 199.5,223.1 199.5,223.1 199.5,223.1 199.5,223.1 201.3,224.2 203.6,225.6 
	205.9,226.9 208.2,228.3 210.6,229.6 212.9,231 215.1,232.4 217.3,233.9 219.5,235.5 221.7,237.1 223.8,238.6 226,240.2 
	228.5,240.9 231.1,240.3 233.7,239.7 236.3,239 238.8,238.1 241.1,236.7 242.9,234.7 244.6,232.6 246.3,230.5 248,228.5 
	249.7,226.4 251.4,224.3 253.1,222.3 254.7,220.2 256.4,218.1 257.8,215.8 257.5,213.2 256.8,210.6 256.2,208 255.5,205.4 
	254.9,202.8 254.2,200.2 253.2,197.8 251.8,195.5 250.4,193.2 249,190.9 247.7,188.5 246.6,186.1 245.5,183.7 244.8,181.1 
	244.1,178.5 243.5,175.9 242.8,173.3 242.1,170.7 241.3,168.2 240.4,165.7 239.5,163.2 238.6,160.6 238.5,160.3 238.5,160.3 
	238.5,160.3 238.5,160.3 238.5,160.3 238.5,160.3 238.5,160.3 238.5,160.3 238.5,160.3 238.5,160.3 236.8,155.7 234.8,150 
	233.6,144.2 235.3,138.5 237.3,132.9 239.3,127.2 241.3,121.6 242.7,115.8 242.1,109.8 243.4,104.1 248.2,100.6 253.5,97.8 
	258.9,95.1 264.4,93 270.4,92.5 276.4,92.1 282.4,91.7 288.3,91.3 294.2,92.1 300,93.9 301.3,94.3 301.3,94.3 301.3,94.3 "/>
<polyline id="R004-U001-GS2-RND2" class="st4" points="40.4,434.2 40.4,434.2 40.4,434.2 40.4,434.2 40.4,434.2 40.4,434.2 
	40.4,434.2 40.4,434.2 40.4,434.2 40.4,434.2 40.4,434.2 40.4,434.2 40.4,434.2 40.4,434.2 40.4,434.2 40.4,434.2 40.4,434.2 
	40.4,434.2 40.4,434.2 43.1,434.2 51.7,434.2 60.4,434.2 69,434.2 77.6,434.2 86.2,434.1 94.7,432.8 101.7,428 105.4,420.3 
	105.7,418 105.7,418 105.7,418 105.7,418 105.7,418 105.7,418 105.7,418 105.7,418 105.7,418 105.7,418 105.4,418.1 103.2,418.7 
	101,419.3 98.8,419.9 96.5,419.7 95,418 94.8,415.7 94.8,413.8 94.8,413.8 94.8,413.8 94.8,413.8 94.8,413.8 94.8,413.8 94.8,413.8 
	94.8,413.8 94.8,413.8 94.8,413.8 94.8,413.8 94.8,413.8 94.8,413.8 94.8,413.8 94.8,413.8 94.8,413.8 94.8,413.8 94.8,413.8 
	94.8,413.8 101.5,418 104.1,419.6 104.1,419.6 104.1,419.6 104.1,419.6 104.1,419.6 104.1,419.6 104.1,419.6 104.1,419.6 
	104.1,419.6 104.1,419.6 104.1,419.6 104.1,419.6 103.7,417.3 103.7,417.3 103.7,417.3 103.5,416.2 102.7,411.1 103.1,406.1 
	106.4,402.3 110.3,398.9 114.1,395.5 117.9,392 121.7,388.6 125.5,385.2 129.2,381.6 131.8,377.1 133.8,372.4 135.8,367.7 
	138.7,363.5 143.4,362.2 143.4,362.6 143.4,362.8 145.6,360 149,357.9 153.9,357.5 159.1,357.4 164.2,357.4 169.4,357.3 173,358.4 
	173,362.6 172,367.5 168,369.9 163,369.1 158.4,366.8 154.8,363.3 153.9,358.3 152.1,354 152.1,352.8 152.1,354.3 152.1,356.4 
	149.9,358.6 144.9,358.4 140.4,355.9 136.9,352.3 136.2,347.2 136,342.1 135.7,337 135.4,331.9 135.1,326.7 134.9,321.6 
	134.2,316.5 132,311.9 131.5,310.9 131.5,310.9 131.3,310.5 127.3,302.9 127.3,302.9 127.3,302.9 126.9,302.2 124.6,297.7 
	124.6,297.7 124.6,297.7 124.6,297.7 124.4,297.3 123.8,296.2 123.8,296.2 123.8,296.2 125,298.5 126.6,301.5 128.2,304.5 
	129.5,307 129.5,307 129.5,307 129.5,307 129.5,307 129.5,307 129.5,307 129.5,307 129.5,307 129.5,307 129.5,307 129.5,307 
	129.5,307 129.5,307 129.5,307 129.5,307 129.5,307 129.5,307 129.5,307 129.5,307 129.5,307 129.5,307 129.5,307 129.5,307 
	129.5,307 129.5,307 129.5,307 129.5,307 129.5,307 129.5,307 129.5,307 129.5,307 129.5,307 131.9,299.6 134.6,291.4 137.8,283.5 
	145.1,279.2 153.5,277.6 162,276.3 170,279.3 177.6,283.3 186,283.9 193.9,280.3 201.6,276.5 209.3,272.6 213.6,268.1 213.6,268.1 
	213.6,268.1 213.6,268.1 213.6,268.1 213.6,268.1 213.6,268.1 215.4,265.5 218.9,260.2 220.6,257.9 220.6,257.9 220.6,257.9 
	220.6,257.9 220.6,257.9 220.6,257.9 220.6,257.9 220.6,257.9 221.9,256.9 227.4,253 227.4,253 227.4,253 227.4,253 226.8,253.4 
	226.6,253.5 226.4,253.7 226.1,253.9 225.9,254.1 225.7,254.2 225.7,254.2 225.7,254.2 225.7,254.2 225.7,254.2 225.7,254.2 
	225.7,254.2 225.7,254.2 225.7,254.2 225.7,254.2 225.7,254.2 225.7,254.2 225.7,254.2 225.7,254.2 225.7,254.2 225.7,254.2 
	225.7,254.2 225.7,254.2 225.7,254.2 225.7,254.2 225.7,254.2 225.7,254.2 225.7,254.2 225.7,254.2 225.7,254.2 225.7,254.2 
	225.7,254.2 225.7,254.2 225.7,254.2 225.7,254.2 225.7,254.2 225.7,254.2 225.7,254.2 225.7,254.2 225.7,254.2 225.7,254.2 
	225.7,254.2 225.7,254.2 226.6,261.2 226.9,263.2 226.9,263.2 226.9,263.2 226.9,263.2 226.9,263.2 226.9,263.2 226.9,263.2 
	226.9,263.2 226.1,257.3 224.9,248.8 223.7,240.3 219.5,232.9 213.2,227 206.9,221.2 204.1,218.6 207.1,215.6 210.5,212.2 
	213.4,215 219.1,220.6 221.8,228.6 218.4,236.3 220.5,239.1 225.4,245.1 231.8,250.9 236.8,254.2 241.1,250 243.1,248.2 
	243.1,248.2 244.4,244.1 248.2,236.3 252,228.6 255.8,220.9 256.8,212.6 252,205.5 247.8,198.2 249.1,189.8 250.4,181.4 
	250.3,180.6 250.3,180.6 250.3,180.6 250.2,180.5 247.5,178.2 244.7,175.9 242.9,172.9 241.9,169.4 240.9,166 240,162.5 
	239.2,159.7 239.2,159.7 239.2,159.7 239.2,159.7 239.2,159.7 239.2,159.7 239.2,159.7 239.2,159.7 239.2,159.7 239.2,159.7 
	239.2,159.7 239.2,159.7 239.2,159.7 239.2,159.7 239.2,159.7 237.9,158.2 232.1,151.8 227.7,144.6 228.4,136.1 229.7,135.3 
	231.3,134.2 232.5,125.7 233.8,117.1 237.1,109.4 244.7,105.7 253.1,103.6 260.7,99.9 266.1,93.2 273,88.4 281.3,90 288.7,94.3 
	291.5,95.7 291.5,95.7 291.5,95.7 291.5,95.7 291.6,95.7 291.8,95.6 291.8,95.6 291.8,95.6 291.8,95.6 291.8,95.6 291.8,95.6 
	291.8,95.6 291.8,95.6 291.8,95.6 291.8,95.6 287.9,96 287.9,96 287.9,96 288.7,95.9 297.3,95.2 "/>
</svg>
